<mxfile host="app.diagrams.net" modified="2023-12-24T12:21:40.329Z" agent="Mozilla/5.0 (Macintosh; Intel Mac OS X 10_15_7) AppleWebKit/537.36 (KHTML, like Gecko) Chrome/120.0.0.0 Safari/537.36" etag="Cqcw7g3EdEjt4bfH2hOp" version="22.1.11" type="device">
  <diagram name="ページ1" id="_KkmgOmIIb8mSUVASKxh">
    <mxGraphModel dx="1026" dy="650" grid="1" gridSize="10" guides="1" tooltips="1" connect="1" arrows="1" fold="1" page="1" pageScale="1" pageWidth="827" pageHeight="1169" math="0" shadow="0">
      <root>
        <mxCell id="0" />
        <mxCell id="1" parent="0" />
        <mxCell id="p5vheX1oV4jpoSyCe2XO-3" value="AWS Cloud" style="points=[[0,0],[0.25,0],[0.5,0],[0.75,0],[1,0],[1,0.25],[1,0.5],[1,0.75],[1,1],[0.75,1],[0.5,1],[0.25,1],[0,1],[0,0.75],[0,0.5],[0,0.25]];outlineConnect=0;gradientColor=none;html=1;whiteSpace=wrap;fontSize=12;fontStyle=0;container=1;pointerEvents=0;collapsible=0;recursiveResize=0;shape=mxgraph.aws4.group;grIcon=mxgraph.aws4.group_aws_cloud_alt;strokeColor=#232F3E;fillColor=none;verticalAlign=top;align=left;spacingLeft=30;fontColor=#232F3E;dashed=0;" vertex="1" parent="1">
          <mxGeometry x="340" y="80" width="470" height="530" as="geometry" />
        </mxCell>
        <mxCell id="p5vheX1oV4jpoSyCe2XO-4" value="Region" style="points=[[0,0],[0.25,0],[0.5,0],[0.75,0],[1,0],[1,0.25],[1,0.5],[1,0.75],[1,1],[0.75,1],[0.5,1],[0.25,1],[0,1],[0,0.75],[0,0.5],[0,0.25]];outlineConnect=0;gradientColor=none;html=1;whiteSpace=wrap;fontSize=12;fontStyle=0;container=1;pointerEvents=0;collapsible=0;recursiveResize=0;shape=mxgraph.aws4.group;grIcon=mxgraph.aws4.group_region;strokeColor=#00A4A6;fillColor=none;verticalAlign=top;align=left;spacingLeft=30;fontColor=#147EBA;dashed=1;" vertex="1" parent="p5vheX1oV4jpoSyCe2XO-3">
          <mxGeometry x="40" y="40" width="380" height="440" as="geometry" />
        </mxCell>
        <mxCell id="p5vheX1oV4jpoSyCe2XO-12" style="edgeStyle=orthogonalEdgeStyle;rounded=0;orthogonalLoop=1;jettySize=auto;html=1;" edge="1" parent="p5vheX1oV4jpoSyCe2XO-4" source="p5vheX1oV4jpoSyCe2XO-2" target="p5vheX1oV4jpoSyCe2XO-1">
          <mxGeometry relative="1" as="geometry" />
        </mxCell>
        <mxCell id="p5vheX1oV4jpoSyCe2XO-2" value="" style="sketch=0;points=[[0,0,0],[0.25,0,0],[0.5,0,0],[0.75,0,0],[1,0,0],[0,1,0],[0.25,1,0],[0.5,1,0],[0.75,1,0],[1,1,0],[0,0.25,0],[0,0.5,0],[0,0.75,0],[1,0.25,0],[1,0.5,0],[1,0.75,0]];outlineConnect=0;fontColor=#232F3E;fillColor=#ED7100;strokeColor=#ffffff;dashed=0;verticalLabelPosition=bottom;verticalAlign=top;align=center;html=1;fontSize=12;fontStyle=0;aspect=fixed;shape=mxgraph.aws4.resourceIcon;resIcon=mxgraph.aws4.lambda;" vertex="1" parent="p5vheX1oV4jpoSyCe2XO-4">
          <mxGeometry x="120" y="240" width="78" height="78" as="geometry" />
        </mxCell>
        <mxCell id="p5vheX1oV4jpoSyCe2XO-1" value="" style="sketch=0;points=[[0,0,0],[0.25,0,0],[0.5,0,0],[0.75,0,0],[1,0,0],[0,1,0],[0.25,1,0],[0.5,1,0],[0.75,1,0],[1,1,0],[0,0.25,0],[0,0.5,0],[0,0.75,0],[1,0.25,0],[1,0.5,0],[1,0.75,0]];outlineConnect=0;fontColor=#232F3E;fillColor=#01A88D;strokeColor=#ffffff;dashed=0;verticalLabelPosition=bottom;verticalAlign=top;align=center;html=1;fontSize=12;fontStyle=0;aspect=fixed;shape=mxgraph.aws4.resourceIcon;resIcon=mxgraph.aws4.bedrock;" vertex="1" parent="p5vheX1oV4jpoSyCe2XO-4">
          <mxGeometry x="260" y="240" width="78" height="78" as="geometry" />
        </mxCell>
        <mxCell id="p5vheX1oV4jpoSyCe2XO-7" value="" style="sketch=0;points=[[0,0,0],[0.25,0,0],[0.5,0,0],[0.75,0,0],[1,0,0],[0,1,0],[0.25,1,0],[0.5,1,0],[0.75,1,0],[1,1,0],[0,0.25,0],[0,0.5,0],[0,0.75,0],[1,0.25,0],[1,0.5,0],[1,0.75,0]];outlineConnect=0;fontColor=#232F3E;fillColor=#DD344C;strokeColor=#ffffff;dashed=0;verticalLabelPosition=bottom;verticalAlign=top;align=center;html=1;fontSize=12;fontStyle=0;aspect=fixed;shape=mxgraph.aws4.resourceIcon;resIcon=mxgraph.aws4.cognito;" vertex="1" parent="p5vheX1oV4jpoSyCe2XO-4">
          <mxGeometry x="120" y="40" width="78" height="78" as="geometry" />
        </mxCell>
        <mxCell id="p5vheX1oV4jpoSyCe2XO-18" value="Cognito" style="text;html=1;strokeColor=none;fillColor=none;align=center;verticalAlign=middle;whiteSpace=wrap;rounded=0;" vertex="1" parent="p5vheX1oV4jpoSyCe2XO-4">
          <mxGeometry x="114" y="118" width="90" height="30" as="geometry" />
        </mxCell>
        <mxCell id="p5vheX1oV4jpoSyCe2XO-19" value="Lambda" style="text;html=1;strokeColor=none;fillColor=none;align=center;verticalAlign=middle;whiteSpace=wrap;rounded=0;" vertex="1" parent="p5vheX1oV4jpoSyCe2XO-4">
          <mxGeometry x="114" y="318" width="90" height="30" as="geometry" />
        </mxCell>
        <mxCell id="p5vheX1oV4jpoSyCe2XO-20" value="Bedrock" style="text;html=1;strokeColor=none;fillColor=none;align=center;verticalAlign=middle;whiteSpace=wrap;rounded=0;" vertex="1" parent="p5vheX1oV4jpoSyCe2XO-4">
          <mxGeometry x="254" y="318" width="90" height="30" as="geometry" />
        </mxCell>
        <mxCell id="p5vheX1oV4jpoSyCe2XO-14" style="edgeStyle=orthogonalEdgeStyle;rounded=0;orthogonalLoop=1;jettySize=auto;html=1;exitX=0.5;exitY=1;exitDx=0;exitDy=0;" edge="1" parent="p5vheX1oV4jpoSyCe2XO-3" source="p5vheX1oV4jpoSyCe2XO-4" target="p5vheX1oV4jpoSyCe2XO-4">
          <mxGeometry relative="1" as="geometry" />
        </mxCell>
        <mxCell id="p5vheX1oV4jpoSyCe2XO-5" value="" style="sketch=0;outlineConnect=0;fontColor=#232F3E;gradientColor=none;fillColor=#232F3D;strokeColor=none;dashed=0;verticalLabelPosition=bottom;verticalAlign=top;align=center;html=1;fontSize=12;fontStyle=0;aspect=fixed;pointerEvents=1;shape=mxgraph.aws4.authenticated_user;" vertex="1" parent="1">
          <mxGeometry x="40" y="360" width="78" height="78" as="geometry" />
        </mxCell>
        <mxCell id="p5vheX1oV4jpoSyCe2XO-6" value="" style="sketch=0;outlineConnect=0;fontColor=#232F3E;gradientColor=none;fillColor=#232F3D;strokeColor=none;dashed=0;verticalLabelPosition=bottom;verticalAlign=top;align=center;html=1;fontSize=12;fontStyle=0;aspect=fixed;pointerEvents=1;shape=mxgraph.aws4.client;" vertex="1" parent="1">
          <mxGeometry x="40" y="270" width="78" height="76" as="geometry" />
        </mxCell>
        <mxCell id="p5vheX1oV4jpoSyCe2XO-10" style="edgeStyle=orthogonalEdgeStyle;rounded=0;orthogonalLoop=1;jettySize=auto;html=1;entryX=0;entryY=0.5;entryDx=0;entryDy=0;entryPerimeter=0;" edge="1" parent="1" source="p5vheX1oV4jpoSyCe2XO-6" target="p5vheX1oV4jpoSyCe2XO-7">
          <mxGeometry relative="1" as="geometry">
            <Array as="points">
              <mxPoint x="270" y="308" />
              <mxPoint x="270" y="199" />
            </Array>
          </mxGeometry>
        </mxCell>
        <mxCell id="p5vheX1oV4jpoSyCe2XO-11" style="edgeStyle=orthogonalEdgeStyle;rounded=0;orthogonalLoop=1;jettySize=auto;html=1;entryX=0;entryY=0.5;entryDx=0;entryDy=0;entryPerimeter=0;" edge="1" parent="1" source="p5vheX1oV4jpoSyCe2XO-6" target="p5vheX1oV4jpoSyCe2XO-2">
          <mxGeometry relative="1" as="geometry">
            <Array as="points">
              <mxPoint x="270" y="308" />
              <mxPoint x="270" y="399" />
            </Array>
          </mxGeometry>
        </mxCell>
        <mxCell id="p5vheX1oV4jpoSyCe2XO-15" value="" style="shape=image;verticalLabelPosition=bottom;labelBackgroundColor=default;verticalAlign=top;aspect=fixed;imageAspect=0;image=data:image/svg+xml,PHN2ZyB4bWxucz0iaHR0cDovL3d3dy53My5vcmcvMjAwMC9zdmciIHZpZXdCb3g9Ii0xMS41IC0xMC4yMzE3NCAyMyAyMC40NjM0OCI+JiN4YTsgIDx0aXRsZT5SZWFjdCBMb2dvPC90aXRsZT4mI3hhOyAgPGNpcmNsZSBmaWxsPSIjNjFkYWZiIiByPSIyLjA1IiBjeT0iMCIgY3g9IjAiLz4mI3hhOyAgPGcgZmlsbD0ibm9uZSIgc3Ryb2tlLXdpZHRoPSIxIiBzdHJva2U9IiM2MWRhZmIiPiYjeGE7ICAgIDxlbGxpcHNlIHJ5PSI0LjIiIHJ4PSIxMSIvPiYjeGE7ICAgIDxlbGxpcHNlIHRyYW5zZm9ybT0icm90YXRlKDYwKSIgcnk9IjQuMiIgcng9IjExIi8+JiN4YTsgICAgPGVsbGlwc2UgdHJhbnNmb3JtPSJyb3RhdGUoMTIwKSIgcnk9IjQuMiIgcng9IjExIi8+JiN4YTsgIDwvZz4mI3hhOzwvc3ZnPg==;" vertex="1" parent="1">
          <mxGeometry x="80" y="190" width="57.5" height="50" as="geometry" />
        </mxCell>
        <mxCell id="p5vheX1oV4jpoSyCe2XO-16" value="" style="shape=image;verticalLabelPosition=bottom;labelBackgroundColor=default;verticalAlign=top;aspect=fixed;imageAspect=0;image=data:image/svg+xml,PHN2ZyB4bWxuczp4bGluaz0iaHR0cDovL3d3dy53My5vcmcvMTk5OS94bGluayIgeG1sbnM9Imh0dHA6Ly93d3cudzMub3JnLzIwMDAvc3ZnIiB2aWV3Qm94PSIwLjAwMDMyMjY5OTU0NjgxMzk2NDg0IC0wLjAwMDEyODc0NjAzMjcxNDg0Mzc1IDI1NS45OTk2Nzk1NjU0Mjk3IDI1Ni4zMjE5Mjk5MzE2NDA2IiBwcmVzZXJ2ZUFzcGVjdFJhdGlvPSJ4TWlkWU1pZCBtZWV0IiBoZWlnaHQ9IjMxLjkxNTU3MTA0MjA3MTk4NSIgd2lkdGg9IjMxLjg3OTk2MDA5NTg4MjQxNCIgY2xhc3M9Imljb25pZnkgaWNvbmlmeS0tbG9nb3MiIHJvbGU9ImltZyIgYXJpYS1oaWRkZW49InRydWUiPjxkZWZzPjxsaW5lYXJHcmFkaWVudCB5Mj0iNzguNDExJSIgeTE9IjcuNjUyJSIgeDI9IjU3LjYzNiUiIHgxPSItLjgyOCUiIGlkPSJJY29uaWZ5SWQxODEzMDg4ZmUxZmJjMDFmYjQ2NiI+PHN0b3Agc3RvcC1jb2xvcj0iIzQxRDFGRiIgb2Zmc2V0PSIwJSIvPjxzdG9wIHN0b3AtY29sb3I9IiNCRDM0RkUiIG9mZnNldD0iMTAwJSIvPjwvbGluZWFyR3JhZGllbnQ+PGxpbmVhckdyYWRpZW50IHkyPSI4OS4wMyUiIHkxPSIyLjI0MiUiIHgyPSI1MC4zMTYlIiB4MT0iNDMuMzc2JSIgaWQ9Ikljb25pZnlJZDE4MTMwODhmZTFmYmMwMWZiNDY3Ij48c3RvcCBzdG9wLWNvbG9yPSIjRkZFQTgzIiBvZmZzZXQ9IjAlIi8+PHN0b3Agc3RvcC1jb2xvcj0iI0ZGREQzNSIgb2Zmc2V0PSI4LjMzMyUiLz48c3RvcCBzdG9wLWNvbG9yPSIjRkZBODAwIiBvZmZzZXQ9IjEwMCUiLz48L2xpbmVhckdyYWRpZW50PjwvZGVmcz48cGF0aCBkPSJNMjU1LjE1MyAzNy45MzhMMTM0Ljg5NyAyNTIuOTc2Yy0yLjQ4MyA0LjQ0LTguODYyIDQuNDY2LTExLjM4Mi4wNDhMLjg3NSAzNy45NThjLTIuNzQ2LTQuODE0IDEuMzcxLTEwLjY0NiA2LjgyNy05LjY3bDEyMC4zODUgMjEuNTE3YTYuNTM3IDYuNTM3IDAgMCAwIDIuMzIyLS4wMDRsMTE3Ljg2Ny0yMS40ODNjNS40MzgtLjk5MSA5LjU3NCA0Ljc5NiA2Ljg3NyA5LjYyWiIgZmlsbD0idXJsKCNJY29uaWZ5SWQxODEzMDg4ZmUxZmJjMDFmYjQ2NikiLz48cGF0aCBkPSJNMTg1LjQzMi4wNjNMOTYuNDQgMTcuNTAxYTMuMjY4IDMuMjY4IDAgMCAwLTIuNjM0IDMuMDE0bC01LjQ3NCA5Mi40NTZhMy4yNjggMy4yNjggMCAwIDAgMy45OTcgMy4zNzhsMjQuNzc3LTUuNzE4YzIuMzE4LS41MzUgNC40MTMgMS41MDcgMy45MzYgMy44MzhsLTcuMzYxIDM2LjA0N2MtLjQ5NSAyLjQyNiAxLjc4MiA0LjUgNC4xNTEgMy43OGwxNS4zMDQtNC42NDljMi4zNzItLjcyIDQuNjUyIDEuMzYgNC4xNSAzLjc4OGwtMTEuNjk4IDU2LjYyMWMtLjczMiAzLjU0MiAzLjk3OSA1LjQ3MyA1Ljk0MyAyLjQzN2wxLjMxMy0yLjAyOGw3Mi41MTYtMTQ0LjcyYzEuMjE1LTIuNDIzLS44OC01LjE4Ni0zLjU0LTQuNjcybC0yNS41MDUgNC45MjJjLTIuMzk2LjQ2Mi00LjQzNS0xLjc3LTMuNzU5LTQuMTE0bDE2LjY0Ni01Ny43MDVjLjY3Ny0yLjM1LTEuMzctNC41ODMtMy43NjktNC4xMTNaIiBmaWxsPSJ1cmwoI0ljb25pZnlJZDE4MTMwODhmZTFmYmMwMWZiNDY3KSIvPjwvc3ZnPg==;" vertex="1" parent="1">
          <mxGeometry x="50" y="139" width="51" height="51" as="geometry" />
        </mxCell>
        <mxCell id="p5vheX1oV4jpoSyCe2XO-17" value="Vite &amp;amp; React &amp;amp; Amplify" style="text;html=1;strokeColor=none;fillColor=none;align=center;verticalAlign=middle;whiteSpace=wrap;rounded=0;" vertex="1" parent="1">
          <mxGeometry x="1" y="240" width="156" height="30" as="geometry" />
        </mxCell>
        <mxCell id="p5vheX1oV4jpoSyCe2XO-21" value="" style="shape=image;verticalLabelPosition=bottom;labelBackgroundColor=default;verticalAlign=top;aspect=fixed;imageAspect=0;image=data:image/png,iVBORw0KGgoAAAANSUhEUgAAAEQAAAAzCAYAAAAuNK7LAAAAAXNSR0IArs4c6QAACyRJREFUaAXFWwuMXUUZ/ubu3e3ulna3L/uyL2oxFB+INTxatDVYm7aAgKnYFlKDBluB0lJpoWmBQost9LFAtIQgKkSxNeER1AgJFGErEtQgVqPEEggxoqSIPFza3Tt+/8ydc2bOOfexe+/dzuae+eef+Wfm/+afxz/nrMJxCPpZPAyN88s2rfBTNQcXly3TgEzVgDorVqmfwwz04k8EpaVs4SbMVmfhYNkydc7M1bm+qqpTZ+BlFuyqWLiALq0xqIN2XAAxQLRiK1X9V1lQNGbRPlaULVPnzEEDRD+DE/2+q1l4m+mNPi+TLmCbPoQTMvMawBwUQPSvMZPrxbP6BXQEOszG92klLwa8dGIc3qoCuLTcgDiDAgjB2M3fePTgBr+XSqFA/tU+L5PWWKN/i2mZeXVmNhwQ/RQWU+35/IG/K8wO4ymhzsYBJn/msbLIITiG27My6s1rKCCcIs3ow04DhvS8wPRRWksytOBasj5IsoO0xoX6ID4X8BqQaCgg+A+uJAgncVoIGO63SD9Ni/GCOh2vcC3Z6bGyyQL2cBtuaJ8bVjkX0jG0js1GMwFEfhIsvZuK5S2j+ByBW0n9M+AlExqnohvfSLLrmW4YIHgPN9MqOiLr8K1Ec9d5Gqt8RdQpeJdWssHnlaC3cB0aXiKvZnZDToH6F/gwgXiVCub4g/kJ9I628RG0YgaP5kecFuZU2o3nKTvL8UrEu7gYX1MiryZ2QyxELcTrVOqgWTfcVHFriJ0y0umRXEa3+L3nNqzRVMU2rNK7lV9PLXRDACl26GpahOafXUyF6cBwPI3LzaGtKCCROpOrBPATj5UmxSk8hl3pjNo5DQNELcbvaCH3RVYiFhID4eg8vd70NixricL/Kqi3mNcIX6hQpt/ZDQPE9CTHI7fGO4FlSIYDx1rMfH0A5/o95z3Ia5TZ4fNK0LJbNZXIGxC7boDoRzBWP4Tlfi/UIrONbg0AEDAkOFAk7sVOc4gzGcVHmwHkdZ+VojVO4QRbmeLXwKgbIDyBbuO83k1QOoP+5LGH6cOBlYhlSBAwLDAzeIi7yvCKD3rD73ParPd5Jegb6UmPKJHXb3ZdANEP4jQewlZQ6dEc7c1+L7jjfECl13nKx0C4gnbqbDKHOceTeLZZXJ/zWSlaYxSBuynFHyCjLoBQ2S7+csYKxIHbh4/6/VFfwkPs9IGUlTgLsVbSQei2BnJ2l1pNnrMpPzumNVbq3+DkmDFwqmZA9P1Ywu7O8ZRtJp3eEhXPF5qwiWoWAKumU9XyLtNP4pO+OuqzPKgVcL+R8zNCWnardJthmapSNQFCS2hjKzsiBd2Iayxk3gK/B+pccxF0j1HMTpEYEJGTIFbWZ9Ycm3bPJlxHufcqgLJAd2ORExloXBMg7OI6KjClhJK7eBcSOnAt2MTybwflnbXE8Vz9BC7yFeI2/A+mb43k/Eyf1hm7lZ9fBT1gQPQPMdHsAsnRjqfEybxCDh24hfg3+7TFKOYASMoLv4Db9MsYEvS/wOsB8Y+kfKmguXb14IpS2dXwBwwIt9jvcLSHRspZReLlz6bXG4fN78lk3EmZv0VySUCkrOZ14WGs9cXUPKoKfDuQ8ws4WmMzzzSjXbK/8YAA0XfjdDa0LFo7pFU3chILGBI07jMOm02ZJ88Xx0hcY8onwXCyVv56TrlxnijUXOxn+plA1i9g6U5Cd0uaXR2n34AUR7yL1iFOvAXCASCxU0pz3o8ylz6mmP9QF+Ixpp+IFAvlbB19fPXQQytMhpzxhu1uJW1lBY2v87rx41lZlXj9BgR7eTwv0EKSo+uUcp2kg6a+yGW3VChgDbN6o3p8eVc3cKl+PLwb4Tb8e8qkncawnSb2UU7I/Q79AkT/yKwZ8WovSiQVsennsRQPlOuN+jIOUXZvIC8Cfp0FWmFvhmJ9dBpV0Wn02/cb1Pg8j/QX+Kxq6H4Bgv/SLS9wd3Ej6MeuY2LwGquTa0dmZwp8T6P5GsrV4+pwaRvP1r/EV315dQ7e4JS9JZLzywcFuVsdqvBC3S9PumpA9F08bzifRDoQjqSt1ir0Y/U1lPc/ip1QS8z14Q2mLl+pZP0a27kmyCEwDlOMu3DYMHzZuIQMzXS2IFOz6lA1IBwROZG2mlFxIynNuM4ID/RQh1R1UWwKm8dofI/m/5dMUKSABWcSj3Py7iYKaoZ5jxPvVq5Pth9ROda9kZfSY2NGeaoqQHSX8VWWmKocALajMSCSBrar5bxP7Ufg+aKXxddEwCbrd4r24Vpzee3VzakjH948acAUvpN1MpY3jIO5zRMrS1YEhNuseLFdQS2uYYnjxl/jTchtQbkqE1xgf8WiPzd1ufqkbhcsr5392O5YXixToi+SzZLXWEFv+DRPpiRZERCeK1dQOl2Z67ADB1jPNaHSPWjJjjBDzP+YGWVRyv+JlKT7sJQL7JmSdIFW8kfK3GPSyT7F4GQ7ja4SLy4LiL4Xw9hYcEfhycbWodGtVuLBIK+fCYL5V4rcZQDJUszV15vxVVGeTqMuOo0xCPEUsoN2Ni+l7bR3dWXEZQHhTr+RDQXH54w65JpXLnFqDy3G8XszAsVXTmib/gwn16V+Y1yH3mTeTUZOMpyci2Mr3qFf4cZQJpQERH+XX/zIpU7l8AO1iq8c6hDUBbxZVWa0rVJSZ1IpUU6+Knoq8VXRKFpXgU6jKy+xBJe2clO45K+zGdnPkoBwNt9OxEMXPF3HO7zxuD7NroGjzHrwkhntUBm3BYuSE2i91/mtFJ3GtZF1WQCS00bSGzh1JviyPp0JCLfZeRSsfOxV2Ka+VeGNvd9aFTTXEtkx5LoxVsaNts/TWMsFdqpfpVrAyaS5YzkgJTOUkbRcWaSdxmJFKUB49ScvfqpxjA7TvNNv3YoV1xKppTxbaHPGiBUSJZ2idvRb+eojvc3neY8iHpAtU0p+Of0cucJIBevCe2x9By5nw3s9VppsHwl0Tiog35LOGwhH97ylLnopuNThq43pVOrPrK6FCpb6ggAcvrnqPH5c4QVazh2UuTKSy5JvonsxB2clfa7AQnjxI99z3OzVHZLN7cDYmcCYk4DmNn7q0FSfX27oKL1/enD4Uxfj7+zLnmCkk1ZirSD9VZHCjZQ7YmT9KePL9+EMXjUtCxVMOnc9fMmk+eVPMuTywIhpwPhPAK3Dk7n1STd1rtKPTR4RVDbUeLRvpBTzp0OBXxU9ist8Oa4lR2gd4kmH00wK+QBxLeF1I0c5DpGF0JvlsNPM/EB7wjAeQyZ+ChhO/0hMr1FBNefxfmvwNaI6n3uJ+7jXV05GWoLj8SqAfk44UkM47WXK+QC4NSiOJ/K7pQ22MvuMAOHaLrfazVFmawcwjhYxcirtSNbZQQjNnfP0IyfOClpaam7H/mAUkwynoFPKpj/E68ZNvlzgNPpl/TpEFljHbXiyofgwgHAhnc+GFhtmnge5MXwTOZZvBlvCKwgn1Lg4p3C0bZ9fP41U1Fkd7TC+ckJLsKBcxS8QPmIZ9sn3yo+TkvvbeOo4GYntr41nrh2mDB858zJJvjQWK+icDEzgm8T2cCq7woMSNw+bqvdNC9eES8xN+36jgHRCFHGW4uICdyOx8nSInUZXtq8oL2Ut7yvEYY4kc3gx9020j5mJCacCHTzAybpxPIP8O0huOHcOHXakybyT6YlAccq5kZY+F3Cefhjn+N3nNypynL/T8PyyIu+AtbHsViqPzvEz0XLCARx9169ncGlfdUc/Ov3T7MQLriNqGV7VD+ASjujHDM8BIpNeZEQpoXszdslWOo1HeSMsJZ2cyDha5ITuxqT/A7F/ceoev9YyAAAAAElFTkSuQmCC;" vertex="1" parent="1">
          <mxGeometry x="20" y="195" width="53.33" height="40" as="geometry" />
        </mxCell>
      </root>
    </mxGraphModel>
  </diagram>
</mxfile>
